 <svg version="1.0" xmlns="http://www.w3.org/2000/svg" width="700.000000pt" height="1364.000000pt" viewBox="0 0 700.000000 1364.000000" preserveAspectRatio="xMidYMid meet">
<metadata>
Created by potrace 1.12, written by Peter Selinger 2001-2015
</metadata>
<g transform="translate(0.000000,1364.000000) scale(0.100000,-0.100000)" fill="#000000" stroke="none">
<path d="M115 13538 c-99 -101 -95 -89 -95 -288 l0 -175 3110 -3110 c1710
-1710 3110 -3113 3110 -3118 0 -4 -1380 -1387 -3066 -3075 -1686 -1687 -3085
-3087 -3108 -3112 l-42 -45 1 -221 2 -220 72 -72 c39 -40 76 -72 82 -72 15 0
6779 6769 6779 6783 0 11 -6769 6787 -6780 6787 -3 0 -32 -28 -65 -62z"></path>
</g>
</svg>